<svg xmlns="http://www.w3.org/2000/svg" width="1200" height="118" viewBox="0 0 1200 118" role="img" aria-labelledby="title">
  <title id="title">Contribution active node</title>
  <defs>
    <linearGradient id="bg" x1="0" y1="0" x2="1" y2="0"><stop stop-color="#020617"/><stop offset="0.55" stop-color="#0f172a"/><stop offset="1" stop-color="#1e1b4b"/></linearGradient>
    <linearGradient id="bar" x1="0" y1="0" x2="1" y2="0"><stop stop-color="#06b6d4"/><stop offset="1" stop-color="#818cf8"/></linearGradient>
  </defs>
  <rect width="1200" height="118" rx="20" fill="url(#bg)"/>
  <rect x="0" y="0" width="8" height="118" rx="4" fill="url(#bar)"/>
  <circle cx="65" cy="59" r="26" fill="#082f49" stroke="#22d3ee" stroke-width="2"/>
  <path d="M50 62L60 52L70 68L82 43" fill="none" stroke="#67e8f9" stroke-width="4" stroke-linecap="round" stroke-linejoin="round"/>
  <text x="112" y="53" fill="#e2e8f0" font-family="Segoe UI,Arial,sans-serif" font-size="28" font-weight="800" letter-spacing="2">CONTRIBUTION ACTIVE</text>
  <text x="112" y="81" fill="#64748b" font-family="Segoe UI,Arial,sans-serif" font-size="15" font-weight="700" letter-spacing="2">LIVE ACTIVITY · STREAK · COMMIT PULSE · 3D GRID</text>
  <g transform="translate(895 31)" fill="#22d3ee">
    <rect x="0" y="38" width="12" height="18" rx="3" opacity="0.35"/>
    <rect x="24" y="29" width="12" height="27" rx="3" opacity="0.5"/>
    <rect x="48" y="19" width="12" height="37" rx="3" opacity="0.65"/>
    <rect x="72" y="8" width="12" height="48" rx="3" opacity="0.85"/>
    <rect x="96" y="25" width="12" height="31" rx="3" opacity="0.6"/>
    <rect x="120" y="13" width="12" height="43" rx="3" opacity="0.8"/>
    <rect x="144" y="2" width="12" height="54" rx="3"/>
    <rect x="168" y="17" width="12" height="39" rx="3" opacity="0.72"/>
    <rect x="192" y="9" width="12" height="47" rx="3" opacity="0.9"/>
  </g>
  <circle cx="1137" cy="28" r="5" fill="#22c55e"><animate attributeName="opacity" values="1;0.25;1" dur="1.8s" repeatCount="indefinite"/></circle>
  <text x="1153" y="34" fill="#86efac" font-family="Segoe UI,Arial,sans-serif" font-size="12" font-weight="800">LIVE</text>
</svg>
